# xmcd CD database file
# Copyright (C) 1996 Ti Kan
#
# Track frame offsets:
# 	150
# 	10787
# 	26925
# 	47377
# 	63137
# 	78470
# 	95010
# 	109085
# 	123322
# 	139652
# 	153712
# 	169382
# 	186040
# 	200902
# 	214867
# 	228187
#
# Disc length: 3300 seconds
#
# Revision: 1
# Processed by: cddbd v1.4b41PL1 Copyright (c) Steve Scherf et al.
# Submitted via: DiscPlay 3.4.1
#
DISCID=dc0ce210
DTITLE=Kris Kristofferson - My Songs
DYEAR=1900
DGENRE=
TTITLE0=Help Me Make It Through The Night
TTITLE1=Casey's Last Ride
TTITLE2=Sunday Mornin' Comin' Down
TTITLE3=If You Don't Like Hank Williams
TTITLE4=For The Good Times
TTITLE5=Rain (With Rita Coolidge)
TTITLE6=The Golden Idol
TTITLE7=Stranger
TTITLE8=I've Got A Life Of My Own
TTITLE9=Nobody Wins
TTITLE10=Why Me
TTITLE11=Magdalene
TTITLE12=Darby's Castle
TTITLE13=Lover Please
TTITLE14=Billy Dee
TTITLE15=Me And Bobby Mcgee
EXTD=
EXTT0=
EXTT1=
EXTT2=
EXTT3=
EXTT4=
EXTT5=
EXTT6=
EXTT7=
EXTT8=
EXTT9=
EXTT10=
EXTT11=
EXTT12=
EXTT13=
EXTT14=
EXTT15=
PLAYORDER=
